<svg xmlns="http://www.w3.org/2000/svg" viewBox="0 0 1200 900" role="img" aria-labelledby="t d">
  <title id="t">Room Timeline Preview</title>
  <desc id="d">Illustration of a booking timeline with occupied and free slots.</desc>
  <defs>
    <linearGradient id="bg" x1="0" y1="0" x2="1" y2="1">
      <stop offset="0" stop-color="#ffe4e6"/>
      <stop offset="1" stop-color="#ffedd5"/>
    </linearGradient>
  </defs>
  <rect width="1200" height="900" fill="url(#bg)"/>
  <rect x="65" y="70" width="1070" height="760" rx="30" fill="#fff" stroke="#0f172a" stroke-width="10"/>
  <rect x="110" y="120" width="990" height="80" rx="16" fill="#e2e8f0"/>
  <rect x="145" y="145" width="280" height="30" rx="8" fill="#64748b"/>
  <rect x="920" y="140" width="140" height="36" rx="14" fill="#fb7185"/>
  <line x1="160" y1="280" x2="1040" y2="280" stroke="#0f172a" stroke-width="6"/>
  <line x1="160" y1="420" x2="1040" y2="420" stroke="#0f172a" stroke-width="6"/>
  <line x1="160" y1="560" x2="1040" y2="560" stroke="#0f172a" stroke-width="6"/>
  <rect x="220" y="240" width="290" height="80" rx="18" fill="#fb7185"/>
  <rect x="560" y="240" width="170" height="80" rx="18" fill="#34d399"/>
  <rect x="760" y="240" width="220" height="80" rx="18" fill="#fbbf24"/>
  <rect x="180" y="380" width="190" height="80" rx="18" fill="#34d399"/>
  <rect x="410" y="380" width="330" height="80" rx="18" fill="#fb7185"/>
  <rect x="790" y="380" width="170" height="80" rx="18" fill="#34d399"/>
  <rect x="250" y="520" width="340" height="80" rx="18" fill="#fbbf24"/>
  <rect x="640" y="520" width="290" height="80" rx="18" fill="#fb7185"/>
  <rect x="140" y="680" width="920" height="100" rx="18" fill="#f8fafc" stroke="#334155" stroke-width="4"/>
  <rect x="180" y="720" width="420" height="22" rx="10" fill="#94a3b8"/>
  <rect x="640" y="720" width="220" height="22" rx="10" fill="#cbd5e1"/>
</svg>
