<svg xmlns="http://www.w3.org/2000/svg" viewBox="0 0 1200 900" role="img" aria-labelledby="t d">
  <title id="t">Campus Floor Plan Preview</title>
  <desc id="d">Illustration of a floor plan with highlighted active rooms.</desc>
  <defs>
    <linearGradient id="bg" x1="0" y1="0" x2="1" y2="1">
      <stop offset="0" stop-color="#e2e8f0"/>
      <stop offset="1" stop-color="#ddd6fe"/>
    </linearGradient>
  </defs>
  <rect width="1200" height="900" fill="url(#bg)"/>
  <rect x="70" y="70" width="1060" height="760" rx="30" fill="#fff" stroke="#0f172a" stroke-width="10"/>
  <rect x="110" y="120" width="990" height="80" rx="16" fill="#e2e8f0"/>
  <rect x="140" y="145" width="260" height="30" rx="8" fill="#64748b"/>
  <rect x="920" y="140" width="150" height="36" rx="14" fill="#f59e0b"/>
  <rect x="140" y="250" width="920" height="500" rx="20" fill="#f8fafc" stroke="#334155" stroke-width="6"/>
  <rect x="180" y="290" width="180" height="120" rx="14" fill="#34d399" stroke="#14532d" stroke-width="4"/>
  <rect x="390" y="290" width="230" height="120" rx="14" fill="#fbbf24" stroke="#713f12" stroke-width="4"/>
  <rect x="650" y="290" width="180" height="120" rx="14" fill="#fb7185" stroke="#7f1d1d" stroke-width="4"/>
  <rect x="860" y="290" width="160" height="120" rx="14" fill="#34d399" stroke="#14532d" stroke-width="4"/>
  <rect x="180" y="440" width="280" height="120" rx="14" fill="#bfdbfe" stroke="#1e3a8a" stroke-width="4"/>
  <rect x="490" y="440" width="240" height="120" rx="14" fill="#fecdd3" stroke="#9f1239" stroke-width="4"/>
  <rect x="760" y="440" width="260" height="120" rx="14" fill="#d9f99d" stroke="#365314" stroke-width="4"/>
  <rect x="180" y="590" width="420" height="120" rx="14" fill="#f1f5f9" stroke="#334155" stroke-width="4"/>
  <rect x="630" y="590" width="390" height="120" rx="14" fill="#f1f5f9" stroke="#334155" stroke-width="4"/>
  <circle cx="260" cy="350" r="16" fill="#0f172a"/>
  <circle cx="470" cy="350" r="16" fill="#0f172a"/>
  <circle cx="760" cy="350" r="16" fill="#0f172a"/>
  <circle cx="930" cy="350" r="16" fill="#0f172a"/>
</svg>
